<?xml version="1.0" encoding="utf-8"?>
<!-- Generator: Adobe Illustrator 21.0.2, SVG Export Plug-In . SVG Version: 6.00 Build 0)  -->
<svg version="1.1" id="Layer_1" xmlns="http://www.w3.org/2000/svg" xmlns:xlink="http://www.w3.org/1999/xlink" x="0px" y="0px"
	 viewBox="0 0 128 128" style="enable-background:new 0 0 128 128;" xml:space="preserve">
<style type="text/css">
	.st0{fill:#011627;}
	.st1{fill:#495C68;}
	.st2{fill:#DA6FBF;}
</style>
<path class="st0" d="M98,128H30c-16.6,0-30-13.4-30-30V30C0,13.4,13.4,0,30,0h68c16.6,0,30,13.4,30,30v68
	C128,114.6,114.6,128,98,128z"/>
<g>
	<g>
		<path class="st1" d="M90.6,40.4l-33,48.5l-5.3-1.5l33.4-48.9L90.6,40.4z"/>
		<path class="st1" d="M110,40.4L77,88.9l-5.3-1.5l33.4-48.9L110,40.4z"/>
	</g>
	<g>
		<g>
			<path class="st2" d="M22,82.9c8.2-2.2,12.1-3.7,12.1-5.6c0-2.1-4.6-4.6-4.6-7.7c0-2,1.6-4.2,5.9-5.6c-4.4-1.2-6-3.3-6-5.4
				c0-3.4,4.4-5.5,4.4-8.1c0-2.4-3.8-4.3-11.7-6.5l2.5-5.9c12.7,4,16.7,6.5,16.7,10.6c0,4.3-4.7,6.5-4.7,8.8c0,1.7,2.4,2.9,7.1,3.4
				l-0.3,5.3c-5.5,0.6-7.2,1.3-7.2,2.6c0,2,5.2,4,5.2,8.2c0.1,4-4.2,8-17,12.1L22,82.9z"/>
		</g>
	</g>
</g>
</svg>
